HIERARCHY
ROOT root
{
	OFFSET	0	13.1	24.9
	CHANNELS 6  Xposition Yposition Zposition Xrotation Yrotation Zrotation
	JOINT spine_1
	{
		OFFSET	0	9.99999	0
		CHANNELS 3  Xrotation Yrotation Zrotation
		JOINT spine_2
		{
			OFFSET	0	112	-10
			CHANNELS 3  Xrotation Yrotation Zrotation
			JOINT spine_3
			{
				OFFSET	0	206.5	19.3
				CHANNELS 3  Xrotation Yrotation Zrotation
				JOINT spine_4
				{
					OFFSET	0	110.4	14.6
					CHANNELS 3  Xrotation Yrotation Zrotation
					JOINT neck_1
					{
						OFFSET	0	71.8	-50.3
						CHANNELS 3  Xrotation Yrotation Zrotation
						JOINT neck_2
						{
							OFFSET	0	86.2	-25.8
							CHANNELS 3  Xrotation Yrotation Zrotation
							JOINT head_ee
							{
								OFFSET	0	179.8	-8.7
								CHANNELS 3  Xrotation Yrotation Zrotation
								End Site
								{
									OFFSET	1	0	0
								}
							}
						}
					}
					JOINT left_clavicle
					{
						OFFSET	-43.2	22.4	-70.8
						CHANNELS 3  Xrotation Yrotation Zrotation
						JOINT left_shoulder
						{
							OFFSET	-93.9	-5.79999	48.7
							CHANNELS 3  Xrotation Yrotation Zrotation
							JOINT left_elbow
							{
								OFFSET	-291.4	-30.8	15.2
								CHANNELS 3  Xrotation Yrotation Zrotation
								JOINT left_lowarm_twist
								{
									OFFSET	-110.7	-3.89999	13.6
									CHANNELS 3  Xrotation Yrotation Zrotation
									JOINT left_hand
									{
										OFFSET	-110.7	-3.89999	13.6
										CHANNELS 3  Xrotation Yrotation Zrotation
										JOINT left_ee
										{
											OFFSET	-80.8	-5.10001	12.1
											CHANNELS 3  Xrotation Yrotation Zrotation
											End Site
											{
												OFFSET	1	0	0
											}
										}
									}
								}
							}
						}
					}
					JOINT right_clavicle
					{
						OFFSET	43.2	22.4	-70.8
						CHANNELS 3  Xrotation Yrotation Zrotation
						JOINT right_shoulder
						{
							OFFSET	93.9	-5.79999	48.7
							CHANNELS 3  Xrotation Yrotation Zrotation
							JOINT right_elbow
							{
								OFFSET	291.4	-30.8	15.2
								CHANNELS 3  Xrotation Yrotation Zrotation
								JOINT right_lowarm_twist
								{
									OFFSET	110.7	-3.89999	13.6
									CHANNELS 3  Xrotation Yrotation Zrotation
									JOINT right_hand
									{
										OFFSET	110.7	-3.89999	13.6
										CHANNELS 3  Xrotation Yrotation Zrotation
										JOINT right_ee
										{
											OFFSET	80.8	-5.10001	12.1
											CHANNELS 3  Xrotation Yrotation Zrotation
											End Site
											{
												OFFSET	1	0	0
											}
										}
									}
								}
							}
						}
					}
				}
			}
		}
	}
	JOINT left_hip
	{
		OFFSET	-82.8	-127.5	0.300001
		CHANNELS 3  Xrotation Yrotation Zrotation
		JOINT left_knee
		{
			OFFSET	-28.2	-396.7	2.2
			CHANNELS 3  Xrotation Yrotation Zrotation
			JOINT left_ankle
			{
				OFFSET	-11.7	-411.3	35.4
				CHANNELS 3  Xrotation Yrotation Zrotation
				JOINT left_toes
				{
					OFFSET	0	-60	-88.6
					CHANNELS 3  Xrotation Yrotation Zrotation
					JOINT left_foot_ee
					{
						OFFSET	-22.5	-16.5	-42.2
						CHANNELS 3  Xrotation Yrotation Zrotation
						End Site
						{
							OFFSET	1	0	0
						}
					}
				}
			}
		}
	}
	JOINT right_hip
	{
		OFFSET	82.8	-127.5	0.300001
		CHANNELS 3  Xrotation Yrotation Zrotation
		JOINT right_knee
		{
			OFFSET	28.2	-396.7	2.2
			CHANNELS 3  Xrotation Yrotation Zrotation
			JOINT right_ankle
			{
				OFFSET	11.7	-411.3	35.4
				CHANNELS 3  Xrotation Yrotation Zrotation
				JOINT right_toes
				{
					OFFSET	0	-60	-88.6
					CHANNELS 3  Xrotation Yrotation Zrotation
					JOINT right_foot_ee
					{
						OFFSET	22.5	-16.5	-42.2
						CHANNELS 3  Xrotation Yrotation Zrotation
						End Site
						{
							OFFSET	1	0	0
						}
					}
				}
			}
		}
	}
}
MOTION
Frames: 14
Frame Time: 0.02
3227.62 711.157 -1567.75 -14.8858 61.9897 12.9326 1.59257 0.604087 3.75529 1.60034 0.36408 3.78606 1.62512 -0.332687 3.78894 1.60519 0.269438 3.79396 -9.31653 18.6817 -4.44804 -9.67513 38.113 0.36916 -0.0 0.0 -0.0 0.531648 15.4633 2.66295 -44.2431 -31.2371 61.6828 0.923973 -24.5936 0.201409 -24.1724 -1.44578 2.70856 -0.0550192 8.81267 3.30442 -0.0 0.0 -0.0 13.4369 26.4835 -26.6304 3.02305 27.505 -61.9423 2.64278 52.6165 -1.30679 -25.2177 1.53311 -2.81013 -4.40097 6.6288 34.5482 0.0 0.0 0.0 27.1307 -1.80304 -13.0891 3.59281 -0.164538 -0.526622 -23.8678 7.79594 3.59047 -1.12228 0.0 0.0 -0.0 0.0 -0.0 -4.11511 2.57834 9.29621 -18.1615 -0.31299 -2.75781 26.6342 24.14 4.08465 -25.8776 0.0 0.0 0.0 0.0 0.0 
3193.14 714.72 -1566.25 -12.6321 61.2095 11.7422 1.52507 0.600928 3.77691 1.53293 0.359554 3.80743 1.5577 -0.34554 3.80873 1.53755 0.259863 3.81552 -8.67674 18.6858 -4.74258 -8.90213 38.2735 -0.182721 -0.0 0.0 -0.0 0.524685 15.342 2.63962 -43.6123 -31.405 61.6263 0.899886 -24.0259 0.191493 -24.2652 -1.45346 2.71764 -0.0379789 8.35259 3.2261 -0.0 0.0 -0.0 13.2754 27.2775 -26.1562 1.81448 27.3081 -62.5936 2.5796 51.946 -1.25681 -24.9812 1.51319 -2.78729 -4.2092 6.69333 33.0277 0.0 0.0 0.0 26.7734 -1.22575 -13.3594 -1.21479 0.0481099 0.180214 -23.8441 8.06684 3.58669 -1.00177 0.0 0.0 -0.0 0.0 -0.0 -4.84159 3.16743 10.1645 -20.0015 -0.295622 -3.03959 27.1158 23.5569 4.12105 -25.4223 0.0 0.0 0.0 0.0 0.0 
3168.35 720.996 -1555.23 -11.7663 59.8361 10.5092 1.66526 0.600767 3.7754 1.67312 0.359489 3.80591 1.69756 -0.336017 3.80805 1.67743 0.269161 3.81335 -7.36573 18.65 -5.23933 -7.31144 38.4471 -1.22834 -0.0 0.0 -0.0 0.661385 15.3497 2.85805 -42.7583 -31.6209 62.0051 0.883063 -23.6264 0.184697 -24.3379 -1.45948 2.72474 -0.0102134 8.02756 3.27281 -0.0 0.0 -0.0 13.0926 27.8545 -25.6593 -0.82613 26.9031 -63.6525 2.45431 50.5546 -1.1591 -24.9089 1.50712 -2.78029 -4.04111 6.75735 31.7198 0.0 0.0 0.0 26.5076 -0.599249 -12.8831 -4.62664 0.162651 0.691229 -23.7389 8.28739 3.57077 -0.916286 0.0 0.0 -0.0 0.0 -0.0 -5.28096 3.5926 10.5706 -22.2175 -0.262708 -3.37801 27.5508 23.0519 4.15441 -25.1103 0.0 0.0 0.0 0.0 0.0 
3138.54 723.128 -1549.57 -11.6529 60.0986 10.933 1.76105 0.421578 3.75876 1.76889 0.181719 3.77793 1.78103 -0.500674 3.74905 1.76144 0.0972637 3.78104 -5.33741 18.6041 -5.47383 -4.87009 38.3431 -2.30559 -0.0 0.0 -0.0 0.925915 14.6595 3.21633 -40.8786 -31.5236 61.0175 0.697965 -19.0729 0.117257 -24.8426 -1.50156 2.77386 -0.183512 7.73806 2.02943 -0.0 0.0 -0.0 12.7811 27.9853 -24.9264 -3.0956 26.5555 -64.1054 2.32508 49.0277 -1.06039 -24.4205 1.46633 -2.7328 -3.8492 6.61706 30.142 0.0 0.0 0.0 26.1366 0.49223 -12.6806 -8.60739 0.257545 1.29463 -20.6175 9.55902 3.10043 -0.0123247 0.0 0.0 -0.0 0.0 -0.0 -5.59599 4.57561 11.1139 -23.7462 -0.232383 -3.61063 28.1989 18.2413 4.05785 -25.7543 0.0 0.0 0.0 0.0 0.0 
3113.61 734.783 -1541.06 -10.8893 60.2354 9.43255 1.81341 0.307522 3.75706 1.82126 0.0680007 3.76899 1.82567 -0.608261 3.72027 1.80636 -0.0135136 3.76958 -3.92331 18.568 -5.64354 -3.17231 38.2475 -3.05671 -0.0 0.0 -0.0 1.27016 14.2524 3.73695 -38.9685 -31.5633 59.8959 0.545245 -15.115 0.0723401 -25.8704 -1.58858 2.87274 -0.207174 7.87074 1.93115 -0.0 0.0 -0.0 12.4887 28.0644 -24.2467 -6.9677 26.7987 -64.4962 2.23393 47.891 -0.992164 -25.2647 1.53708 -2.81465 -3.45208 6.0697 26.8255 0.0 0.0 0.0 25.028 1.98089 -10.6029 -10.9484 0.293697 1.652 -16.835 12.3875 2.53211 1.31755 -0.0 -0.0 -0.0 0.0 -0.0 -5.68997 13.0556 11.5451 -29.8506 -0.0497603 -4.52922 30.6793 8.75201 4.09558 -26.5162 0.0 0.0 0.0 0.0 0.0 
3093.69 728.324 -1543.17 -9.42694 60.8245 7.34283 1.75869 0.241491 3.76516 1.76657 0.00158877 3.77289 1.76666 -0.678263 3.71151 1.74745 -0.0840225 3.77195 -3.64449 18.9396 -4.40493 -2.91577 37.9701 -1.79589 -0.0 0.0 -0.0 1.07477 13.9096 3.3899 -38.8898 -32.3667 58.6153 0.467406 -13.0367 0.0534062 -26.7357 -1.66322 2.95478 -0.192204 7.52176 1.88308 -0.0 0.0 -0.0 12.1951 27.7602 -23.6157 -9.22339 27.9078 -64.4067 2.18899 47.3115 -0.958976 -25.8546 1.58723 -2.87124 -2.82709 5.40439 21.8783 0.0 0.0 0.0 23.4983 3.15658 -8.63011 -12.7497 0.311558 1.92779 -10.3185 14.297 1.54636 3.3323 -0.0 -0.0 -0.0 0.0 -0.0 -5.97851 23.8211 11.1482 -35.2747 0.193832 -5.32555 32.1371 -1.18613 4.12606 -27.3805 0.0 0.0 0.0 0.0 0.0 
3071.32 739.667 -1537.45 -9.4264 59.7578 6.98036 1.7769 0.401044 3.74823 1.7847 0.161894 3.76612 1.79546 -0.517148 3.73401 1.77601 0.0786245 3.76878 -3.3306 19.9691 -2.73583 -2.59058 38.558 -0.00934237 -0.0 0.0 -0.0 1.45251 12.813 3.91804 -37.0306 -33.3209 56.8528 0.444951 -12.4303 0.0484566 -27.046 -1.69028 2.98393 -0.160221 7.76322 2.19096 -0.0 0.0 -0.0 11.9989 27.5444 -23.1956 -12.0411 28.6062 -64.3579 2.08936 45.98 -0.88653 -27.0477 1.69043 -2.98409 -2.24508 4.93928 17.4928 0.0 0.0 0.0 22.4933 4.03629 -7.32138 -15.3333 0.322023 2.32402 -5.89619 15.5774 0.879952 4.85693 -0.0 -0.0 -0.0 0.0 -0.0 -6.49572 32.6635 11.2058 -39.1261 0.412106 -5.87556 33.1237 -7.4299 4.21439 -27.6376 0.0 0.0 0.0 0.0 0.0 
3051.77 746.008 -1534.3 -9.13447 60.2208 6.03936 1.69651 0.339086 3.88698 1.70491 0.0912518 3.90066 1.71133 -0.616686 3.85275 1.69062 -0.000958108 3.90172 -5.21872 20.4261 -0.877266 -4.89312 38.3634 2.71657 -0.0 0.0 -0.0 1.7103 12.1228 4.29385 -36.1433 -33.8534 55.1973 0.488846 -13.6129 0.0583475 -27.8849 -1.76425 3.062 -0.479879 7.90267 0.177781 -0.0 0.0 -0.0 11.611 25.8825 -22.5082 -14.6767 29.4045 -64.3406 2.00483 44.7976 -0.826351 -28.7755 1.84402 -3.14369 -1.52578 3.34426 11.758 0.0 0.0 0.0 20.0559 4.63688 -5.29238 -12.7988 0.311923 1.93532 -5.05903 15.3845 0.753601 5.06215 -0.0 -0.0 -0.0 0.0 -0.0 -2.80746 39.3947 7.26891 -43.8548 0.73004 -6.5293 35.2262 -12.8686 4.45643 -30.7259 0.0 0.0 0.0 0.0 0.0 
3035.31 750.539 -1531.29 -8.20771 59.9142 4.69633 1.74643 0.417998 3.7345 1.75417 0.179687 3.75349 1.76614 -0.499242 3.72452 1.7468 0.0948113 3.75659 -5.33325 21.001 0.315858 -5.04319 38.5859 4.07885 -0.0 0.0 -0.0 1.72174 11.4904 4.26542 -35.7069 -34.0544 53.5928 0.495262 -13.7848 0.059867 -28.4748 -1.81694 3.11624 -0.753174 8.23373 -1.44873 -0.0 0.0 -0.0 11.3856 24.7054 -22.1214 -16.5342 29.968 -64.3363 1.82819 42.161 -0.704777 -30.2253 1.97658 -3.27401 -0.987564 1.65829 7.34091 0.0 0.0 0.0 17.6821 5.08958 -3.35986 -11.0245 0.294627 1.66363 -4.67193 15.2899 0.695315 5.15362 -0.0 -0.0 -0.0 0.0 -0.0 0.375884 43.4079 3.71917 -49.3249 1.16389 -7.25042 37.7883 -15.688 4.73912 -32.6674 0.0 0.0 0.0 0.0 0.0 
3016.61 756.132 -1527.6 -6.28395 58.9021 2.65532 1.50361 0.467874 3.65555 1.51102 0.234475 3.67788 1.5268 -0.446897 3.65817 1.50816 0.136046 3.68282 -5.66553 21.4462 1.39142 -5.44268 38.7059 5.37437 -0.0 0.0 -0.0 1.75161 10.3249 4.22763 -34.6236 -34.3639 51.581 0.506726 -14.0913 0.0626283 -28.8681 -1.85239 3.15211 -0.951342 8.51442 -2.60708 -0.0 0.0 -0.0 11.1616 23.8837 -21.6949 -18.4315 30.2716 -64.2075 1.6813 39.7865 -0.608435 -31.2501 2.07225 -3.36409 -0.591297 0.45884 4.15015 0.0 0.0 0.0 15.9559 5.33525 -2.32757 -9.25645 0.269031 1.39356 -4.39624 15.2223 0.653861 5.22029 -0.0 -0.0 -0.0 0.0 -0.0 2.77515 46.5196 1.11083 -53.4227 1.53315 -7.76218 39.5729 -17.6503 4.93924 -34.0896 0.0 0.0 0.0 0.0 0.0 
2991.56 758.128 -1528.3 -4.00254 57.7163 1.1516 1.31758 0.420113 3.43629 1.32413 0.200735 3.45603 1.3372 -0.450561 3.43243 1.32077 0.0968455 3.46049 -5.759 22.085 1.82884 -5.54363 39.6045 5.9717 -0.0 0.0 -0.0 1.45378 8.16269 3.53353 -33.5128 -34.6812 48.2701 0.521347 -14.481 0.0662363 -28.5559 -1.82423 3.12365 -1.09366 8.00633 -3.75389 -0.0 0.0 -0.0 10.8868 22.7206 -21.1804 -21.1215 30.6215 -64.133 1.60527 38.4889 -0.560443 -32.1605 2.1586 -3.44269 -0.296655 0.0218832 1.99066 0.0 0.0 0.0 10.3669 7.3168 -1.72284 -6.48961 0.212283 0.972811 -2.8991 16.2758 0.430947 6.1008 -0.0 -0.0 -0.0 0.0 -0.0 5.69363 48.4366 -0.192952 -56.2703 1.81099 -8.10188 40.2735 -19.3018 5.03773 -35.6857 0.0 0.0 0.0 0.0 0.0 
2969.79 756.823 -1535.42 -0.237763 54.8501 -2.38054 0.876297 0.685674 3.42654 0.882707 0.466379 3.46316 0.912964 -0.216342 3.48769 0.89615 0.336848 3.47813 -5.55041 21.661 0.528682 -5.28704 39.7068 4.50025 -0.0 0.0 -0.0 1.39977 8.02938 3.42663 -32.4939 -34.761 45.9494 0.531208 -14.743 0.068724 -29.1984 -1.88235 3.18205 -1.83399 8.2622 -8.45579 -0.0 0.0 -0.0 10.8668 21.857 -21.2093 -23.0721 30.9007 -64.1325 1.5175 36.9307 -0.506754 -33.1155 2.25051 -3.52366 -0.172076 1.3163 1.70862 0.0 0.0 0.0 6.65435 10.5974 -1.5569 -3.9481 0.142302 0.589083 -1.21758 16.9851 0.18068 5.62609 -0.0 -0.0 -0.0 0.0 -0.0 7.34254 43.2925 -1.13865 -58.5315 2.04352 -8.36167 41.286 -15.5998 5.05603 -37.8162 0.0 0.0 0.0 0.0 0.0 
2951.09 763.179 -1536.74 2.42858 54.3284 -4.75998 0.6969 0.759822 3.33052 0.702904 0.546476 3.37205 0.737451 -0.130357 3.41351 0.721427 0.410063 3.39133 -4.81304 21.5798 0.774223 -4.41668 39.217 4.44762 -0.0 0.0 -0.0 1.08418 7.84067 2.85106 -32.0374 -34.9607 43.4039 0.58026 -16.0371 0.0817427 -30.5328 -2.00511 3.30121 -3.00134 9.31118 -15.6444 -0.0 0.0 -0.0 10.7905 20.6276 -21.1346 -23.6928 30.5967 -64.2533 1.33018 33.3806 -0.398845 -32.892 2.22888 -3.50485 -0.184813 0.677378 1.52211 0.0 0.0 0.0 2.15097 12.5126 -0.0678487 -3.70106 0.134592 0.551953 1.65939 15.3839 -0.243683 6.28449 -0.0 -0.0 -0.0 0.0 -0.0 10.5523 40.8568 -2.08848 -59.5732 2.15408 -8.47826 41.0911 -14.9596 5.02868 -40.2247 0.0 0.0 0.0 0.0 0.0 
2939.51 768.572 -1527.8 3.36826 52.9269 -5.68334 0.556298 0.837975 3.43613 0.562653 0.617763 3.48241 0.603073 -0.0904617 3.53556 0.585938 0.468699 3.50556 -4.3206 21.5497 1.00724 -3.84206 38.8776 4.49578 -0.0 0.0 -0.0 0.845648 7.71475 2.41604 -31.7415 -35.083 41.5875 0.614883 -16.9406 0.0915698 -31.4598 -2.09204 3.38232 -3.82709 10.1473 -20.7852 -0.0 0.0 -0.0 10.5709 19.8178 -20.6982 -24.7201 30.1511 -63.7382 1.17851 30.2754 -0.31883 -32.7022 2.21056 -3.4888 -0.194808 0.206006 1.38852 0.0 0.0 0.0 1.08581 13.567 0.330928 -2.98466 0.11133 0.444468 3.63731 14.0855 -0.530083 6.68109 -0.0 -0.0 -0.0 0.0 -0.0 12.2249 39.018 -2.99772 -60.4834 2.25241 -8.57849 40.9556 -14.5115 5.01005 -41.3458 0.0 0.0 0.0 0.0 0.0 
